<svg width="1920" height="329" viewBox="0 0 1920 329" fill="none" xmlns="http://www.w3.org/2000/svg">
<path d="M0 42.0001C0 42.0001 36.6958 82.3796 93 89.5C227.566 98.9217 359.141 96.5376 494.295 84.1089C629.155 71.8806 764.604 13.2151 899.464 23.2383C1034.62 33.2614 1168.89 111.973 1303.46 115.181C1438.02 118.588 1572.29 82.5052 1706.86 53.839C1841.42 24.9724 1920 0.00012207 1920 0.00012207V34.5001V297H1852.86C1785.43 297 1841.42 297 1706.86 297C1572.29 297 1438.02 297 1303.46 297C1168.89 297 1034.62 297 899.464 297C764.604 297 629.155 297 494.295 297C359.141 297 224.87 297 90.3042 297C60.5 303.5 0 328.662 0 328.662V42.0001Z" fill="#C6D8FC"/>
</svg>

