

<svg width="1920" height="300" viewBox="0 0 1920 300" fill="none" xmlns="http://www.w3.org/2000/svg">
<path d="M-38 44.4997C-38 44.4997 36.6958 82.3793 93 89.4997C227.566 98.9215 359.141 96.5373 494.295 84.1086C629.155 71.8804 764.604 13.2148 899.464 23.238C1034.62 33.2611 1168.89 111.973 1303.46 115.18C1438.02 118.588 1572.29 82.5049 1706.86 53.8387C1841.42 24.9721 1920 -0.000152588 1920 -0.000152588V34.4998V297H1852.86C1785.43 297 1841.42 297 1706.86 297C1572.29 297 1438.02 297 1303.46 297C1168.89 297 1034.62 297 899.464 297C764.604 297 629.155 297 494.295 297C359.141 297 224.87 297 90.3042 297C60.5 303.5 -38 297 -38 297V44.4997Z" fill="#C6D8FC"/>
</svg>


